# xmcd
#
# Track frame offsets:
#	150
#	19356
#	42936
#	55397
#	88044
#	107965
#	133399
#	162794
#	187014
#	211213
#
# Disc length: 3147 seconds
#
# Revision: 1
# Processed by: cddbd v1.4PL0 Copyright (c) Steve Scherf et al.
# Submitted via: audiograbber 1.80.04
#
DISCID=920c490a
DTITLE=Blues Move - beat'n'track
DYEAR=2001
DGENRE=Blues
TTITLE0=If Love Was A Train
TTITLE1=Get Out Of Jail
TTITLE2=Diplomat
TTITLE3=Slow Train
TTITLE4=Remington Ride
TTITLE5=Rhythm Of Life
TTITLE6=Brand New Friend
TTITLE7=T-Bone Shuffle
TTITLE8=She's A Burglar
TTITLE9=Good Thing Is About To Run Out
EXTD=This is Howard Smith's Blues Band\nLeicester Based (UK]\nEx "The Razors"
EXTT0=
EXTT1=
EXTT2=
EXTT3=
EXTT4=
EXTT5=
EXTT6=
EXTT7=
EXTT8=
EXTT9=
PLAYORDER=
